<svg width="927" height="458" viewBox="0 0 927 458" fill="none" xmlns="http://www.w3.org/2000/svg">
<path d="M896.853 345.788H40.1719V361.36H896.853V345.788Z" fill="#ECECEC"/>
<path d="M39.9385 420.984L46.6152 373.17H58.8785L72.5045 396.189L92.5346 373.17H104.798L98.1213 420.984H85.8579L90.2864 389.29L70.2562 412.309L56.6303 389.29L52.2018 420.984H39.9385Z" fill="#ECECEC"/>
<path d="M105.008 420.984L111.684 373.17H149.156L147.861 382.733H122.585L121.291 392.295H144.455L131.987 401.858H119.928L118.634 411.421H144.455L143.16 420.984H105.008Z" fill="#ECECEC"/>
<path d="M160.28 420.984L165.491 383.475H157.741L151.127 374.098H194.552L187.938 383.475H177.516L172.305 420.984H160.28Z" fill="#ECECEC"/>
<path d="M224.864 392.049L213.507 397.541L211.236 389.102L201.749 405.445L230.209 391.245L216.714 408.928L192.797 420.984H180.104L207.227 374.098H219.92L224.864 392.049ZM232.614 420.984H219.92L217.115 411.674L226.735 399.216L232.614 420.984Z" fill="#ECECEC"/>
<path d="M234.691 420.984L241.238 374.098H253.263L248.052 411.607H270.7L269.43 420.984H234.691Z" fill="#ECECEC"/>
<path d="M299.682 369.008L296.809 366.128L306.095 354.942L310.839 359.697L299.682 369.008ZM322.997 374.098L318.121 408.928C317.118 416.162 311.64 420.984 304.425 420.984H285.519C278.304 420.984 274.162 416.162 275.164 408.928L280.041 374.098H292.066L287.857 404.373C287.256 408.727 289.327 411.607 293.202 411.607H299.214C303.089 411.607 306.162 408.727 306.763 404.373L310.972 374.098H322.997Z" fill="#ECECEC"/>
<path d="M322.505 420.984L329.052 374.098H356.309C364.794 374.098 369.203 378.385 369.203 385.686C369.203 396.938 360.852 404.038 349.829 404.038H336.869L334.53 420.984H322.505ZM338.205 394.661H350.631C354.639 394.661 356.51 391.915 356.911 388.901C357.245 386.623 356.777 383.475 352.902 383.475H339.741L338.205 394.661ZM343.082 405.713H356.911L367.132 420.984H353.17L343.082 405.713Z" fill="#ECECEC"/>
<path d="M414.579 403.77L413.845 408.928C412.843 416.162 407.364 420.984 400.149 420.984H379.907C372.692 420.984 368.55 416.162 369.552 408.928L372.758 386.155C373.761 378.921 379.239 374.098 386.454 374.098H412.842L406.229 383.475H391.598C387.723 383.475 384.717 386.356 384.116 390.709L382.245 404.373C381.644 408.727 383.715 411.607 387.59 411.607H401.419L402.955 401.091H391.064L386.988 391.714H404.224C411.44 391.714 415.582 396.536 414.579 403.77Z" fill="#ECECEC"/>
<path d="M435.733 377.246L422.305 386.958L424.108 374.098H436.134L435.733 377.246ZM417.561 420.984L421.904 389.905L435.265 380.193L429.586 420.984H417.561Z" fill="#ECECEC"/>
<path d="M477.034 420.984H447.105C439.89 420.984 435.748 416.162 436.75 408.928L439.957 386.155C440.959 378.921 446.437 374.098 453.652 374.098H480.041L473.427 383.475H458.796C454.921 383.475 451.915 386.356 451.314 390.709L449.443 404.373C448.842 408.727 450.913 411.607 454.788 411.607H470.421L477.034 420.984Z" fill="#ECECEC"/>
<path d="M521.776 392.049L510.418 397.541L508.147 389.102L498.66 405.445L527.12 391.245L513.625 408.928L489.708 420.984H477.015L504.139 374.098H516.832L521.776 392.049ZM529.525 420.984H516.832L514.026 411.674L523.646 399.216L529.525 420.984Z" fill="#ECECEC"/>
<path d="M567.128 377.246L553.7 386.958L555.504 374.098H567.529L567.128 377.246ZM548.956 420.984L553.299 389.905L566.66 380.193L560.982 420.984H548.956Z" fill="#ECECEC"/>
<path d="M567.811 420.984L574.358 374.098H601.615C610.1 374.098 614.509 378.385 614.509 385.686C614.509 396.938 606.158 404.038 595.135 404.038H582.175L579.836 420.984H567.811ZM583.511 394.661H595.937C599.945 394.661 601.816 391.915 602.217 388.901C602.551 386.623 602.083 383.475 598.208 383.475H585.047L583.511 394.661ZM588.388 405.713H602.217L612.438 420.984H598.475L588.388 405.713Z" fill="#ECECEC"/>
<path d="M614.524 420.984L621.071 374.098H633.096L646.457 396.67L666.098 374.098H678.124L671.577 420.984H659.551L663.894 389.905L644.253 412.478L630.891 389.905L626.549 420.984H614.524Z" fill="#ECECEC"/>
<path d="M694.63 369.075C695.365 363.716 697.77 358.76 703.916 358.76C709.194 358.76 710.597 363.113 713.47 363.113C715.006 363.113 715.273 361.104 715.407 359.965H722.088C721.42 364.922 718.346 369.811 712.868 369.811C705.453 369.811 705.386 365.458 703.582 365.458C701.912 365.458 701.444 367.802 701.311 369.075H694.63ZM718.346 392.049L706.989 397.541L704.718 389.102L695.231 405.445L723.691 391.245L710.196 408.928L686.279 420.984H673.586L700.709 374.098H713.403L718.346 392.049ZM726.096 420.984H713.403L710.597 411.674L720.217 399.216L726.096 420.984Z" fill="#ECECEC"/>
<path d="M728.507 408.928L731.714 386.155C732.716 378.921 738.194 374.098 745.409 374.098H769.259C776.475 374.098 780.617 378.921 779.614 386.155L776.408 408.928C775.406 416.162 769.928 420.984 762.712 420.984H738.862C731.647 420.984 727.505 416.162 728.507 408.928ZM741.201 404.373C740.599 408.727 742.67 411.607 746.545 411.607H757.501C761.376 411.607 764.449 408.727 765.051 404.373L766.921 390.709C767.522 386.356 765.385 383.475 761.51 383.475H750.554C746.679 383.475 743.672 386.356 743.071 390.709L741.201 404.373Z" fill="#ECECEC"/>
<path d="M804.288 392.987H806.225C819.987 392.987 824.664 397.139 824.664 404.44C824.664 412.545 819.72 420.984 810.835 420.984H778.767L785.381 411.607H807.427C810.835 411.607 812.238 409.263 812.572 406.784C813.039 403.636 810.167 402.364 804.889 402.364H798.676C788.788 402.364 784.446 398.211 784.446 390.91C784.446 383.274 789.122 374.098 797.674 374.098H827.87L821.256 383.475H802.951C799.544 383.475 796.939 385.887 796.605 388.432C796.137 391.647 799.01 392.987 804.288 392.987Z" fill="#ECECEC"/>
<path d="M149.952 277.97H41.6406V324.361H149.952V277.97Z" fill="#ECECEC"/>
<path d="M379.092 32.4104C378.916 26.7926 373.162 22.3231 366.118 22.3231H277.57C275.441 22.2898 273.333 22.7127 271.419 23.5572C269.506 24.4017 267.842 25.6437 266.563 27.1813L210.401 98.6053L153.819 27.1989C152.524 25.6556 150.845 24.4097 148.917 23.5625C146.989 22.7152 144.867 22.2906 142.723 22.3231H54.7726C47.5224 22.3231 41.6519 27.0046 41.6519 32.7814V265.347H149.954V169.491L206.135 242.045C206.582 242.568 207.156 242.991 207.812 243.282C208.469 243.573 209.19 243.724 209.922 243.724C210.653 243.724 211.375 243.573 212.031 243.282C212.687 242.991 213.261 242.568 213.708 242.045L270.349 169.473V240.137C270.349 240.137 376.538 129.327 376.597 126.818C378.113 55.3057 379.61 49.7232 379.092 32.4104Z" fill="#ECECEC"/>
<path d="M379.697 140.985V325.066H270.651V255.055L379.697 140.985Z" fill="#ECECEC"/>
<path d="M149.716 265.345V170.063L42.3633 29.3525L149.716 265.345Z" fill="#B1B1B1"/>
<path d="M270.65 237.255V170.23L375.049 27.1348C375.548 26.4459 376.868 26.9317 376.536 27.6825L270.65 237.255Z" fill="#B1B1B1"/>
<path d="M600.772 252.288L782.632 251.546L892.715 326.345L597.064 325.32L600.772 252.288Z" fill="#ECECEC"/>
<path d="M587.377 103.762L586.271 326.072L697.411 326.081L698.604 32.9209L587.377 103.762Z" fill="#ECECEC"/>
<path d="M689.583 22.5498H587.377L586.672 88.091L689.583 22.5498Z" fill="#ECECEC"/>
<path d="M542.203 93.7716L541.557 22.5508H427.639L426.944 93.7716H542.203Z" fill="#ECECEC"/>
<path d="M542.203 108.001H426.944V325.064H542.203V108.001Z" fill="#ECECEC"/>
</svg>
