<svg width="367" height="282" viewBox="0 0 367 282" fill="none" xmlns="http://www.w3.org/2000/svg">
<g clip-path="url(#clip0_159_633)">
<path d="M256.629 0H299.112V157.033H365.621V208.206H256.629V0ZM183.55 0H226.221V208.178H183.55V0ZM0 0H56.1018L77.4683 126.671L98.9009 0H154.748V208.178H119.951V49.4682L93.1046 208.178H61.5769L34.792 49.4682V208.178H0V0Z" fill="#D9D9D9"/>
<path d="M365.62 222.115H0V248.112H365.62V222.115Z" fill="#D9D9D9"/>
<path d="M1.62988 262.368H8.24343L10.8038 274.104L13.3406 262.368H19.9541V281.67H15.8254V266.951L12.6414 281.67H8.90478L5.73028 266.951V281.67H1.62988V262.368Z" fill="#D9D9D9"/>
<path d="M23.1758 262.368H36.6863V266.487H28.2257V269.532H36.0722V273.472H28.2257V277.278H36.932V281.648H23.1758V262.368Z" fill="#D9D9D9"/>
<path d="M38.5 262.368H53.8245V267.135H48.6849V281.665H43.6397V267.135H38.5V262.368Z" fill="#D9D9D9"/>
<path d="M64.591 278.474H58.8656L58.072 281.659H52.9229L59.064 262.357H64.5627L70.7039 281.659H65.4036L64.591 278.474ZM63.5471 274.299L61.7472 267.359L59.9616 274.299H63.5471Z" fill="#D9D9D9"/>
<path d="M72.291 262.368H77.3315V276.898H85.2016V281.654H72.291V262.368Z" fill="#D9D9D9"/>
<path d="M98.1118 262.368H103.143V273.869C103.148 274.968 102.996 276.06 102.694 277.099C102.398 278.1 101.914 279.008 101.277 279.753C100.712 280.454 100.023 281 99.2597 281.352C98.125 281.812 96.9303 282.031 95.7309 282C94.8624 281.993 93.995 281.928 93.1328 281.804C92.3118 281.712 91.5116 281.445 90.7708 281.016C90.1095 280.593 89.5227 280.024 89.0418 279.34C88.5552 278.692 88.1898 277.931 87.9695 277.104C87.6803 276.049 87.5212 274.95 87.4971 273.841V262.368H92.5281V274.143C92.5052 274.591 92.5586 275.04 92.6852 275.463C92.8118 275.887 93.009 276.276 93.265 276.607C93.8386 277.177 94.5638 277.49 95.3129 277.49C96.062 277.49 96.7871 277.177 97.3607 276.607C97.6188 276.275 97.8175 275.884 97.945 275.459C98.0724 275.033 98.126 274.582 98.1024 274.131L98.1118 262.368ZM95.1971 257.238H99.0897L95.4948 261.15H93.3264L95.1971 257.238Z" fill="#D9D9D9"/>
<path d="M106.549 281.67V262.368H114.953C116.157 262.315 117.36 262.475 118.524 262.843C119.337 263.145 120.039 263.763 120.518 264.597C121.039 265.522 121.304 266.616 121.273 267.727C121.297 268.703 121.098 269.668 120.697 270.521C120.308 271.3 119.759 271.95 119.1 272.41C118.548 272.77 117.952 273.026 117.334 273.17C117.797 273.332 118.238 273.573 118.642 273.885C118.945 274.183 119.216 274.522 119.45 274.897C119.717 275.271 119.954 275.673 120.159 276.098L122.596 281.687H116.894L114.202 275.785C113.986 275.222 113.676 274.716 113.29 274.299C112.927 274.002 112.494 273.845 112.052 273.852H111.608V281.676L106.549 281.67ZM111.613 270.186H113.739C114.19 270.147 114.638 270.059 115.076 269.923C115.402 269.849 115.693 269.634 115.893 269.32C116.127 268.939 116.237 268.471 116.204 268.002C116.17 267.533 115.994 267.094 115.709 266.766C115.373 266.43 114.764 266.263 113.819 266.263H111.603L111.613 270.186Z" fill="#D9D9D9"/>
<path d="M132.011 274.679V270.65H139.806V278.881C138.59 279.914 137.257 280.74 135.847 281.335C134.525 281.8 133.15 282.021 131.77 281.989C130.138 282.063 128.515 281.66 127.046 280.815C125.821 280.024 124.832 278.807 124.212 277.328C123.521 275.676 123.176 273.851 123.206 272.008C123.167 270.093 123.546 268.199 124.306 266.509C125.04 264.954 126.169 263.712 127.533 262.96C128.946 262.27 130.469 261.952 131.997 262.027C133.363 261.951 134.731 262.14 136.046 262.586C136.906 262.945 137.673 263.564 138.271 264.38C138.901 265.282 139.355 266.337 139.603 267.47L134.737 268.498C134.568 267.818 134.208 267.227 133.717 266.822C133.169 266.42 132.532 266.226 131.888 266.263C131.389 266.238 130.892 266.348 130.434 266.583C129.976 266.818 129.569 267.173 129.243 267.621C128.588 268.534 128.26 269.972 128.26 271.935C128.26 274.025 128.593 275.515 129.257 276.406C129.606 276.859 130.036 277.216 130.515 277.449C130.995 277.682 131.512 277.785 132.03 277.753C132.578 277.754 133.123 277.656 133.646 277.462C134.26 277.209 134.849 276.877 135.403 276.473V274.657L132.011 274.679Z" fill="#D9D9D9"/>
<path d="M142.99 262.368H148.04V281.67H142.99V262.368Z" fill="#D9D9D9"/>
<path d="M162.524 273.768L166.94 275.35C166.692 276.678 166.209 277.929 165.523 279.021C164.908 279.99 164.096 280.759 163.161 281.257C162.016 281.804 160.787 282.061 159.552 282.011C158.065 282.074 156.583 281.761 155.206 281.094C153.989 280.385 152.975 279.268 152.291 277.881C151.422 276.091 150.998 274.048 151.068 271.985C151.068 268.789 151.786 266.334 153.222 264.62C154.658 262.906 156.689 262.049 159.316 262.049C161.369 262.049 162.985 262.541 164.163 263.525C165.428 264.658 166.348 266.246 166.785 268.051L162.335 269.225C162.234 268.768 162.075 268.333 161.862 267.934C161.593 267.492 161.238 267.131 160.828 266.883C160.143 266.496 159.365 266.411 158.632 266.642C157.9 266.874 157.261 267.407 156.831 268.146C156.371 268.951 156.141 270.218 156.141 271.946C156.141 274.081 156.415 275.551 156.963 276.344C157.543 277.063 158.336 277.489 159.175 277.532C160.015 277.574 160.835 277.231 161.465 276.573C162.021 275.765 162.386 274.797 162.524 273.768Z" fill="#D9D9D9"/>
<path d="M179.421 278.474H173.696L172.902 281.659H167.753L173.894 262.357H179.397L185.539 281.659H180.238L179.421 278.474ZM178.377 274.299L176.573 267.359L174.792 274.299H178.377Z" fill="#D9D9D9"/>
<path d="M194.92 262.368H199.975V281.67H194.92V262.368Z" fill="#D9D9D9"/>
<path d="M203.659 281.67V262.368H212.063C213.263 262.311 214.463 262.465 215.625 262.826C216.438 263.129 217.14 263.747 217.618 264.581C218.081 265.461 218.34 266.469 218.371 267.504C218.402 268.539 218.203 269.566 217.793 270.482C217.407 271.262 216.859 271.912 216.201 272.371C215.648 272.732 215.05 272.988 214.43 273.131C214.894 273.293 215.337 273.534 215.743 273.846C216.044 274.147 216.314 274.486 216.551 274.858C216.817 275.232 217.052 275.634 217.255 276.059L219.697 281.648H214.009L211.317 275.747C211.106 275.193 210.804 274.696 210.429 274.282C210.065 273.986 209.633 273.83 209.191 273.835H208.747V281.659L203.659 281.67ZM208.723 270.186H210.849C211.299 270.148 211.745 270.06 212.181 269.923C212.509 269.851 212.803 269.635 213.003 269.32C213.211 269 213.323 268.606 213.32 268.202C213.334 267.934 213.296 267.665 213.209 267.416C213.122 267.167 212.989 266.945 212.819 266.766C212.484 266.431 211.874 266.263 210.929 266.263H208.714L208.723 270.186Z" fill="#D9D9D9"/>
<path d="M221.266 262.368H227.879L230.435 274.104L232.976 262.368H239.59V281.67H235.461V266.951L232.282 281.67H228.545L225.366 266.951V281.67H221.237L221.266 262.368Z" fill="#D9D9D9"/>
<path d="M252.869 278.473H247.144L246.35 281.659H241.201L247.342 262.357H252.841L258.982 281.659H253.687L252.869 278.473ZM252.298 257.562H254.055C254.055 257.791 254.055 257.986 254.055 258.154C254.1 258.975 253.877 259.786 253.432 260.417C253.229 260.681 252.981 260.89 252.703 261.029C252.426 261.168 252.126 261.234 251.825 261.222C251.077 261.141 250.346 260.905 249.667 260.524C249.283 260.309 248.873 260.167 248.452 260.104C248.36 260.098 248.267 260.116 248.18 260.157C248.094 260.197 248.016 260.259 247.952 260.339C247.812 260.588 247.746 260.885 247.763 261.183H246.029C246.029 260.978 246.029 260.792 246.029 260.624C245.993 259.805 246.231 259.003 246.69 258.389C246.884 258.126 247.123 257.916 247.391 257.773C247.659 257.629 247.95 257.555 248.245 257.556C248.493 257.556 248.74 257.592 248.982 257.662C249.415 257.821 249.841 258.008 250.257 258.221C250.681 258.467 251.138 258.624 251.608 258.685C251.697 258.687 251.785 258.666 251.867 258.623C251.948 258.581 252.021 258.518 252.08 258.439C252.229 258.185 252.306 257.882 252.298 257.573V257.562ZM251.825 274.299L250.026 267.358L248.221 274.31L251.825 274.299Z" fill="#D9D9D9"/>
<path d="M259.931 272.03C259.931 268.878 260.673 266.425 262.156 264.67C263.64 262.915 265.707 262.038 268.359 262.038C271.077 262.038 273.17 262.901 274.637 264.625C276.105 266.35 276.839 268.772 276.839 271.89C276.907 273.803 276.583 275.707 275.894 277.44C275.265 278.857 274.297 280.023 273.111 280.793C271.712 281.649 270.151 282.065 268.576 282C267.007 282.064 265.446 281.709 264.008 280.96C262.775 280.234 261.753 279.087 261.075 277.669C260.273 275.944 259.879 273.997 259.931 272.03ZM264.972 272.03C264.972 273.98 265.279 275.383 265.893 276.233C266.218 276.632 266.607 276.949 267.037 277.166C267.468 277.383 267.931 277.495 268.399 277.495C268.867 277.495 269.33 277.383 269.761 277.166C270.192 276.949 270.581 276.632 270.905 276.233C271.5 275.398 271.798 273.908 271.798 271.762C271.798 269.947 271.483 268.619 270.853 267.777C270.538 267.359 270.149 267.029 269.712 266.811C269.276 266.593 268.804 266.494 268.331 266.52C267.867 266.499 267.406 266.604 266.982 266.826C266.558 267.047 266.183 267.381 265.884 267.8C265.284 268.683 264.972 270.091 264.972 272.058V272.03Z" fill="#D9D9D9"/>
<path d="M278.676 275.283L283.471 274.93C283.524 275.687 283.744 276.413 284.108 277.037C284.375 277.426 284.715 277.735 285.102 277.938C285.489 278.141 285.911 278.233 286.333 278.205C286.931 278.253 287.522 278.041 287.996 277.607C288.175 277.449 288.321 277.244 288.422 277.009C288.524 276.773 288.578 276.514 288.581 276.249C288.583 275.985 288.535 275.724 288.438 275.485C288.342 275.247 288.2 275.038 288.025 274.875C287.651 274.478 286.792 274.109 285.441 273.757C283.236 273.172 281.661 272.392 280.717 271.415C280.26 270.959 279.895 270.387 279.65 269.742C279.405 269.097 279.285 268.395 279.299 267.688C279.304 266.691 279.559 265.719 280.032 264.894C280.572 263.958 281.335 263.233 282.223 262.809C283.505 262.244 284.868 261.988 286.234 262.055C288.322 262.055 289.913 262.513 291.005 263.43C292.101 264.346 292.748 265.805 292.956 267.811L288.204 268.135C288.191 267.775 288.114 267.423 287.981 267.099C287.847 266.776 287.658 266.489 287.426 266.255C287.195 266.022 286.925 265.848 286.633 265.743C286.342 265.639 286.036 265.606 285.733 265.648C285.263 265.61 284.795 265.766 284.411 266.09C284.272 266.216 284.16 266.379 284.083 266.565C284.006 266.751 283.966 266.956 283.967 267.163C283.973 267.324 284.008 267.483 284.071 267.626C284.134 267.77 284.222 267.896 284.33 267.995C284.846 268.374 285.424 268.617 286.026 268.705C287.651 269.043 289.237 269.605 290.75 270.382C291.602 270.848 292.324 271.59 292.834 272.522C293.267 273.385 293.491 274.373 293.481 275.378C293.486 276.596 293.185 277.788 292.616 278.803C292.022 279.86 291.177 280.686 290.188 281.178C288.939 281.765 287.601 282.041 286.258 281.989C283.483 281.989 281.562 281.357 280.495 280.094C279.416 278.803 278.77 277.094 278.676 275.283Z" fill="#D9D9D9"/>
<path d="M303.619 262.368H308.66V276.898H316.53V281.654H303.619V262.368Z" fill="#D9D9D9"/>
<path d="M316.52 262.368H331.835V267.135H326.7V281.665H321.659V267.135H316.52V262.368Z" fill="#D9D9D9"/>
<path d="M334.197 262.368H341.689C342.91 262.313 344.127 262.555 345.266 263.078C346.147 263.528 346.921 264.229 347.519 265.117C348.125 266.034 348.565 267.088 348.813 268.213C349.083 269.434 349.216 270.691 349.21 271.952C349.268 273.582 349.066 275.211 348.615 276.752C348.245 277.832 347.677 278.802 346.952 279.591C346.314 280.316 345.536 280.844 344.684 281.128C343.706 281.455 342.696 281.631 341.68 281.653H334.197V262.368ZM339.233 266.738V277.283H340.471C341.237 277.344 342.005 277.202 342.719 276.87C343.2 276.547 343.569 276.034 343.763 275.422C344.067 274.343 344.195 273.205 344.141 272.069C344.141 270.024 343.862 268.627 343.296 267.872C342.729 267.118 341.798 266.755 340.494 266.755L339.233 266.738Z" fill="#D9D9D9"/>
<path d="M360.906 278.474H355.181L354.387 281.659H349.238L355.379 262.357H360.878L367.019 281.659H361.724L360.906 278.474ZM359.862 274.299L358.063 267.359L356.277 274.299H359.862Z" fill="#D9D9D9"/>
</g>
<defs>
<clipPath id="clip0_159_633">
<rect width="367" height="282" fill="white"/>
</clipPath>
</defs>
</svg>
