<svg width="401" height="242" viewBox="0 0 401 242" fill="none" xmlns="http://www.w3.org/2000/svg">
<path d="M139.848 121C139.848 187.538 198.208 241.478 270.2 241.478C342.191 241.478 400.552 187.538 400.552 121C400.552 54.4615 342.191 0.521484 270.2 0.521484C198.208 0.521484 139.848 54.4615 139.848 121Z" fill="#022859"/>
<path d="M400.552 241.478L367.032 182.758L338.566 201.712L400.552 241.478Z" fill="#022859"/>
<path d="M260.966 121C260.966 187.826 202.547 242 130.483 242C58.4192 242 0 187.826 0 121C0 54.1735 58.4192 0 130.483 0C202.547 0 260.966 54.1735 260.966 121Z" fill="#0468BE"/>
<path d="M0 242L33.5537 183.025L62.0478 202.061L0 242Z" fill="#0468BE"/>
<path d="M103.963 143.278C103.963 138.671 104.394 134.352 105.258 130.32C106.265 126.145 108.064 122.329 110.655 118.874C113.245 115.418 116.915 112.323 121.665 109.587C123.68 108.291 126.27 106.779 129.437 105.052C132.747 103.324 135.913 101.38 138.936 99.2203C141.958 96.9166 144.476 94.253 146.491 91.2294C148.65 88.0618 149.73 84.4623 149.73 80.4308C149.73 76.3993 148.722 73.0158 146.707 70.2801C144.836 67.5445 142.318 65.4568 139.151 64.017C136.129 62.5772 132.819 61.8573 129.221 61.8573C125.047 61.8573 121.305 62.7932 117.995 64.6649C114.685 66.3927 111.878 68.5524 109.575 71.144C107.273 73.7357 105.33 76.3993 103.747 79.135L84.9648 66.1767C87.5554 60.2735 91.0815 55.2342 95.5431 51.0587C100.149 46.8833 105.402 43.7157 111.303 41.556C117.347 39.3963 123.608 38.3164 130.084 38.3164C135.553 38.3164 140.95 39.1803 146.276 40.9081C151.601 42.4919 156.422 45.0115 160.74 48.4671C165.057 51.9226 168.511 56.314 171.102 61.6413C173.693 66.9686 174.988 73.3757 174.988 80.8627C174.988 85.4701 174.412 89.5736 173.261 93.1731C172.253 96.7726 170.742 100.012 168.727 102.892C166.856 105.627 164.482 108.147 161.603 110.451C158.725 112.754 155.63 114.986 152.32 117.146C148.578 119.45 144.764 121.681 140.878 123.841C137.136 126.001 133.97 128.592 131.38 131.616C128.933 134.496 127.71 138.383 127.71 143.278H103.963ZM104.394 193.6V163.796H128.357V193.6H104.394Z" fill="white"/>
</svg>
