<svg width="180" height="180" viewBox="0 0 180 180" fill="none" xmlns="http://www.w3.org/2000/svg">
<circle cx="90" cy="90" r="90" fill="#D9D9D9"/>
<mask id="path-2-inside-1_144_40" fill="white">
<path d="M64.0804 92.9997H61.9204V69.0267C61.9204 65.1087 65.0974 61.9197 69.0004 61.9197H84.3934L77.2384 54.7617L78.7654 53.2347L88.5274 62.9997L78.7834 72.7677L77.2534 71.2407L84.3964 64.0797H69.0004C66.2884 64.0797 64.0804 66.2997 64.0804 69.0267V92.9997ZM115.92 111C115.92 113.712 113.715 115.92 111 115.92H89.6104L96.7654 108.765L95.2354 107.235L85.4734 117L95.2354 126.765L96.7654 125.235L89.6104 118.08H111C114.906 118.08 118.08 114.903 118.08 111V98.9997H115.92V111ZM120 61.9197H114C112.941 61.9197 112.08 61.0587 112.08 59.9997C112.08 58.9407 112.941 58.0797 114 58.0797H123V55.9197H118.08V52.4997H115.92V55.9197H114C111.75 55.9197 109.92 57.7497 109.92 59.9997C109.92 62.2497 111.75 64.0797 114 64.0797H120C121.059 64.0797 121.92 64.9407 121.92 65.9997C121.92 67.0587 121.059 67.9197 120 67.9197H111V70.0797H115.92V73.4997H118.083V70.0797H120C122.25 70.0797 124.08 68.2497 124.08 65.9997C124.08 63.7497 122.25 61.9197 120 61.9197ZM136.08 62.9997C136.08 73.5207 127.518 82.0797 117 82.0797C106.482 82.0797 97.9204 73.5207 97.9204 62.9997C97.9204 52.4787 106.479 43.9197 117 43.9197C127.521 43.9197 136.08 52.4787 136.08 62.9997ZM133.92 62.9997C133.92 53.6697 126.333 46.0797 117 46.0797C107.667 46.0797 100.08 53.6697 100.08 62.9997C100.08 72.3297 107.667 79.9197 117 79.9197C126.333 79.9197 133.92 72.3297 133.92 62.9997ZM70.0564 117.315C72.5074 115.251 73.9624 112.197 73.9624 108.918C73.9624 102.855 69.0364 97.9167 62.9824 97.9167C56.9284 97.9167 52.0024 102.855 52.0024 108.918C52.0024 112.197 53.4574 115.251 55.9114 117.315C48.7504 120.174 43.9204 127.155 43.9204 135H46.0804C46.0804 127.374 51.2284 120.672 58.5964 118.695C59.0254 118.581 59.3404 118.218 59.3884 117.774C59.4394 117.336 59.2174 116.907 58.8244 116.7C55.9444 115.158 54.1564 112.176 54.1564 108.918C54.1564 104.043 58.1134 100.08 62.9764 100.08C67.8394 100.08 71.7964 104.043 71.7964 108.918C71.7964 112.176 70.0084 115.155 67.1284 116.7C66.7384 116.91 66.5134 117.336 66.5644 117.774C66.6154 118.215 66.9304 118.581 67.3564 118.695C74.7484 120.675 79.9144 127.383 79.9144 135H82.0744C82.0804 127.161 77.2354 120.177 70.0564 117.315Z"/>
</mask>
<path d="M64.0804 92.9997H61.9204V69.0267C61.9204 65.1087 65.0974 61.9197 69.0004 61.9197H84.3934L77.2384 54.7617L78.7654 53.2347L88.5274 62.9997L78.7834 72.7677L77.2534 71.2407L84.3964 64.0797H69.0004C66.2884 64.0797 64.0804 66.2997 64.0804 69.0267V92.9997ZM115.92 111C115.92 113.712 113.715 115.92 111 115.92H89.6104L96.7654 108.765L95.2354 107.235L85.4734 117L95.2354 126.765L96.7654 125.235L89.6104 118.08H111C114.906 118.08 118.08 114.903 118.08 111V98.9997H115.92V111ZM120 61.9197H114C112.941 61.9197 112.08 61.0587 112.08 59.9997C112.08 58.9407 112.941 58.0797 114 58.0797H123V55.9197H118.08V52.4997H115.92V55.9197H114C111.75 55.9197 109.92 57.7497 109.92 59.9997C109.92 62.2497 111.75 64.0797 114 64.0797H120C121.059 64.0797 121.92 64.9407 121.92 65.9997C121.92 67.0587 121.059 67.9197 120 67.9197H111V70.0797H115.92V73.4997H118.083V70.0797H120C122.25 70.0797 124.08 68.2497 124.08 65.9997C124.08 63.7497 122.25 61.9197 120 61.9197ZM136.08 62.9997C136.08 73.5207 127.518 82.0797 117 82.0797C106.482 82.0797 97.9204 73.5207 97.9204 62.9997C97.9204 52.4787 106.479 43.9197 117 43.9197C127.521 43.9197 136.08 52.4787 136.08 62.9997ZM133.92 62.9997C133.92 53.6697 126.333 46.0797 117 46.0797C107.667 46.0797 100.08 53.6697 100.08 62.9997C100.08 72.3297 107.667 79.9197 117 79.9197C126.333 79.9197 133.92 72.3297 133.92 62.9997ZM70.0564 117.315C72.5074 115.251 73.9624 112.197 73.9624 108.918C73.9624 102.855 69.0364 97.9167 62.9824 97.9167C56.9284 97.9167 52.0024 102.855 52.0024 108.918C52.0024 112.197 53.4574 115.251 55.9114 117.315C48.7504 120.174 43.9204 127.155 43.9204 135H46.0804C46.0804 127.374 51.2284 120.672 58.5964 118.695C59.0254 118.581 59.3404 118.218 59.3884 117.774C59.4394 117.336 59.2174 116.907 58.8244 116.7C55.9444 115.158 54.1564 112.176 54.1564 108.918C54.1564 104.043 58.1134 100.08 62.9764 100.08C67.8394 100.08 71.7964 104.043 71.7964 108.918C71.7964 112.176 70.0084 115.155 67.1284 116.7C66.7384 116.91 66.5134 117.336 66.5644 117.774C66.6154 118.215 66.9304 118.581 67.3564 118.695C74.7484 120.675 79.9144 127.383 79.9144 135H82.0744C82.0804 127.161 77.2354 120.177 70.0564 117.315Z" fill="black"/>
<path d="M64.0804 92.9997V95.9997H67.0804V92.9997H64.0804ZM61.9204 92.9997H58.9204V95.9997H61.9204V92.9997ZM84.3934 61.9197V64.9197H91.6339L86.5152 59.7988L84.3934 61.9197ZM77.2384 54.7617L75.1171 52.6404L72.9962 54.7612L75.1166 56.8826L77.2384 54.7617ZM78.7654 53.2347L80.8871 51.1137L78.7657 48.9917L76.6441 51.1134L78.7654 53.2347ZM88.5274 62.9997L90.6513 65.1184L92.7671 62.9974L90.6491 60.8787L88.5274 62.9997ZM78.7834 72.7677L76.6642 74.8911L78.7881 77.0108L80.9073 74.8864L78.7834 72.7677ZM77.2534 71.2407L75.1294 69.122L73.0114 71.2454L75.1342 73.3641L77.2534 71.2407ZM84.3964 64.0797L86.5204 66.1983L91.6262 61.0797H84.3964V64.0797ZM89.6104 115.92L87.4891 113.798L82.3678 118.92H89.6104V115.92ZM96.7654 108.765L98.8867 110.886L101.008 108.765L98.8867 106.643L96.7654 108.765ZM95.2354 107.235L97.3567 105.113L95.2351 102.992L93.1138 105.114L95.2354 107.235ZM85.4734 117L83.3518 114.879L81.2314 117L83.3518 119.121L85.4734 117ZM95.2354 126.765L93.1138 128.886L95.2351 131.008L97.3567 128.886L95.2354 126.765ZM96.7654 125.235L98.8867 127.356L101.008 125.235L98.8867 123.113L96.7654 125.235ZM89.6104 118.08V115.08H82.3678L87.4891 120.201L89.6104 118.08ZM118.08 98.9997H121.08V95.9997H118.08V98.9997ZM115.92 98.9997V95.9997H112.92V98.9997H115.92ZM123 58.0797V61.0797H126V58.0797H123ZM123 55.9197H126V52.9197H123V55.9197ZM118.08 55.9197H115.08V58.9197H118.08V55.9197ZM118.08 52.4997H121.08V49.4997H118.08V52.4997ZM115.92 52.4997V49.4997H112.92V52.4997H115.92ZM115.92 55.9197V58.9197H118.92V55.9197H115.92ZM111 67.9197V64.9197H108V67.9197H111ZM111 70.0797H108V73.0797H111V70.0797ZM115.92 70.0797H118.92V67.0797H115.92V70.0797ZM115.92 73.4997H112.92V76.4997H115.92V73.4997ZM118.083 73.4997V76.4997H121.083V73.4997H118.083ZM118.083 70.0797V67.0797H115.083V70.0797H118.083ZM70.0564 117.315L68.124 115.02L64.2925 118.246L68.9455 120.101L70.0564 117.315ZM55.9114 117.315L57.0238 120.101L61.6763 118.243L57.8424 115.019L55.9114 117.315ZM43.9204 135H40.9204V138H43.9204V135ZM46.0804 135V138H49.0804V135H46.0804ZM58.5964 118.695L57.8259 115.795L57.8189 115.797L58.5964 118.695ZM59.3884 117.774L56.4085 117.427L56.4071 117.439L56.4058 117.451L59.3884 117.774ZM58.8244 116.7L57.4084 119.344L57.4173 119.349L57.4263 119.354L58.8244 116.7ZM67.1284 116.7L65.7102 114.056L65.7061 114.058L67.1284 116.7ZM66.5644 117.774L69.5446 117.429L69.5443 117.427L66.5644 117.774ZM67.3564 118.695L68.1326 115.797L68.1319 115.797L67.3564 118.695ZM79.9144 135H76.9144V138H79.9144V135ZM82.0744 135V138H85.0721L85.0744 135.002L82.0744 135ZM64.0804 89.9997H61.9204V95.9997H64.0804V89.9997ZM64.9204 92.9997V69.0267H58.9204V92.9997H64.9204ZM64.9204 69.0267C64.9204 66.7548 66.765 64.9197 69.0004 64.9197V58.9197C63.4298 58.9197 58.9204 63.4626 58.9204 69.0267H64.9204ZM69.0004 64.9197H84.3934V58.9197H69.0004V64.9197ZM86.5152 59.7988L79.3602 52.6408L75.1166 56.8826L82.2716 64.0406L86.5152 59.7988ZM79.3597 56.883L80.8867 55.356L76.6441 51.1134L75.1171 52.6404L79.3597 56.883ZM76.6438 55.3557L86.4058 65.1207L90.6491 60.8787L80.8871 51.1137L76.6438 55.3557ZM86.4035 60.881L76.6595 70.649L80.9073 74.8864L90.6513 65.1184L86.4035 60.881ZM80.9026 70.6443L79.3727 69.1173L75.1342 73.3641L76.6642 74.8911L80.9026 70.6443ZM79.3774 73.3593L86.5204 66.1983L82.2724 61.961L75.1294 69.122L79.3774 73.3593ZM84.3964 61.0797H69.0004V67.0797H84.3964V61.0797ZM69.0004 61.0797C64.6161 61.0797 61.0804 64.6583 61.0804 69.0267H67.0804C67.0804 67.9411 67.9607 67.0797 69.0004 67.0797V61.0797ZM61.0804 69.0267V92.9997H67.0804V69.0267H61.0804ZM112.92 111C112.92 112.056 112.057 112.92 111 112.92V118.92C115.373 118.92 118.92 115.367 118.92 111H112.92ZM111 112.92H89.6104V118.92H111V112.92ZM91.7317 118.041L98.8867 110.886L94.6441 106.643L87.4891 113.798L91.7317 118.041ZM98.8867 106.643L97.3567 105.113L93.1141 109.356L94.6441 110.886L98.8867 106.643ZM93.1138 105.114L83.3518 114.879L87.5951 119.121L97.3571 109.356L93.1138 105.114ZM83.3518 119.121L93.1138 128.886L97.3571 124.644L87.5951 114.879L83.3518 119.121ZM97.3567 128.886L98.8867 127.356L94.6441 123.113L93.1141 124.643L97.3567 128.886ZM98.8867 123.113L91.7317 115.958L87.4891 120.201L94.6441 127.356L98.8867 123.113ZM89.6104 121.08H111V115.08H89.6104V121.08ZM111 121.08C116.564 121.08 121.08 116.559 121.08 111H115.08C115.08 113.247 113.249 115.08 111 115.08V121.08ZM121.08 111V98.9997H115.08V111H121.08ZM118.08 95.9997H115.92V102H118.08V95.9997ZM112.92 98.9997V111H118.92V98.9997H112.92ZM120 58.9197H114V64.9197H120V58.9197ZM114 58.9197C114.598 58.9197 115.08 59.4018 115.08 59.9997H109.08C109.08 62.7155 111.285 64.9197 114 64.9197V58.9197ZM115.08 59.9997C115.08 60.5975 114.598 61.0797 114 61.0797V55.0797C111.285 55.0797 109.08 57.2838 109.08 59.9997H115.08ZM114 61.0797H123V55.0797H114V61.0797ZM126 58.0797V55.9197H120V58.0797H126ZM123 52.9197H118.08V58.9197H123V52.9197ZM121.08 55.9197V52.4997H115.08V55.9197H121.08ZM118.08 49.4997H115.92V55.4997H118.08V49.4997ZM112.92 52.4997V55.9197H118.92V52.4997H112.92ZM115.92 52.9197H114V58.9197H115.92V52.9197ZM114 52.9197C110.094 52.9197 106.92 56.0928 106.92 59.9997H112.92C112.92 59.4065 113.407 58.9197 114 58.9197V52.9197ZM106.92 59.9997C106.92 63.9065 110.094 67.0797 114 67.0797V61.0797C113.407 61.0797 112.92 60.5928 112.92 59.9997H106.92ZM114 67.0797H120V61.0797H114V67.0797ZM120 67.0797C119.403 67.0797 118.92 66.5975 118.92 65.9997H124.92C124.92 63.2838 122.716 61.0797 120 61.0797V67.0797ZM118.92 65.9997C118.92 65.4018 119.403 64.9197 120 64.9197V70.9197C122.716 70.9197 124.92 68.7155 124.92 65.9997H118.92ZM120 64.9197H111V70.9197H120V64.9197ZM108 67.9197V70.0797H114V67.9197H108ZM111 73.0797H115.92V67.0797H111V73.0797ZM112.92 70.0797V73.4997H118.92V70.0797H112.92ZM115.92 76.4997H118.083V70.4997H115.92V76.4997ZM121.083 73.4997V70.0797H115.083V73.4997H121.083ZM118.083 73.0797H120V67.0797H118.083V73.0797ZM120 73.0797C123.907 73.0797 127.08 69.9065 127.08 65.9997H121.08C121.08 66.5928 120.594 67.0797 120 67.0797V73.0797ZM127.08 65.9997C127.08 62.0928 123.907 58.9197 120 58.9197V64.9197C120.594 64.9197 121.08 65.4065 121.08 65.9997H127.08ZM133.08 62.9997C133.08 71.8635 125.862 79.0797 117 79.0797V85.0797C129.175 85.0797 139.08 75.1778 139.08 62.9997H133.08ZM117 79.0797C108.139 79.0797 100.92 71.8635 100.92 62.9997H94.9204C94.9204 75.1778 104.826 85.0797 117 85.0797V79.0797ZM100.92 62.9997C100.92 54.1355 108.136 46.9197 117 46.9197V40.9197C104.823 40.9197 94.9204 50.8218 94.9204 62.9997H100.92ZM117 46.9197C125.865 46.9197 133.08 54.1355 133.08 62.9997H139.08C139.08 50.8218 129.178 40.9197 117 40.9197V46.9197ZM136.92 62.9997C136.92 52.0132 127.991 43.0797 117 43.0797V49.0797C124.676 49.0797 130.92 55.3262 130.92 62.9997H136.92ZM117 43.0797C106.01 43.0797 97.0804 52.0132 97.0804 62.9997H103.08C103.08 55.3262 109.325 49.0797 117 49.0797V43.0797ZM97.0804 62.9997C97.0804 73.9862 106.01 82.9197 117 82.9197V76.9197C109.325 76.9197 103.08 70.6732 103.08 62.9997H97.0804ZM117 82.9197C127.991 82.9197 136.92 73.9862 136.92 62.9997H130.92C130.92 70.6732 124.676 76.9197 117 76.9197V82.9197ZM71.9888 119.609C75.1086 116.982 76.9624 113.092 76.9624 108.918H70.9624C70.9624 111.301 69.9063 113.519 68.124 115.02L71.9888 119.609ZM76.9624 108.918C76.9624 101.204 70.6991 94.9167 62.9824 94.9167V100.917C67.3737 100.917 70.9624 104.506 70.9624 108.918H76.9624ZM62.9824 94.9167C55.2657 94.9167 49.0024 101.204 49.0024 108.918H55.0024C55.0024 104.506 58.5911 100.917 62.9824 100.917V94.9167ZM49.0024 108.918C49.0024 113.092 50.8565 116.983 53.9804 119.611L57.8424 115.019C56.0583 113.518 55.0024 111.301 55.0024 108.918H49.0024ZM54.7991 114.529C46.5118 117.837 40.9204 125.913 40.9204 135H46.9204C46.9204 128.397 50.989 122.51 57.0238 120.101L54.7991 114.529ZM43.9204 138H46.0804V132H43.9204V138ZM49.0804 135C49.0804 128.733 53.3147 123.218 59.3739 121.592L57.8189 115.797C49.1421 118.125 43.0804 126.014 43.0804 135H49.0804ZM59.3669 121.594C60.9853 121.164 62.1885 119.784 62.371 118.096L56.4058 117.451C56.4923 116.651 57.0655 115.997 57.8259 115.795L59.3669 121.594ZM62.3683 118.121C62.5608 116.467 61.7258 114.837 60.2225 114.045L57.4263 119.354C56.709 118.976 56.318 118.204 56.4085 117.427L62.3683 118.121ZM60.2405 114.055C58.333 113.034 57.1564 111.066 57.1564 108.918H51.1564C51.1564 113.285 53.5558 117.282 57.4084 119.344L60.2405 114.055ZM57.1564 108.918C57.1564 105.694 59.7756 103.08 62.9764 103.08V97.0797C56.4513 97.0797 51.1564 102.391 51.1564 108.918H57.1564ZM62.9764 103.08C66.1773 103.08 68.7964 105.694 68.7964 108.918H74.7964C74.7964 102.391 69.5016 97.0797 62.9764 97.0797V103.08ZM68.7964 108.918C68.7964 111.065 67.621 113.031 65.7102 114.056L68.5466 119.343C72.3958 117.278 74.7964 113.286 74.7964 108.918H68.7964ZM65.7061 114.058C64.2497 114.842 63.3893 116.443 63.5845 118.121L69.5443 117.427C69.6376 118.228 69.2271 118.977 68.5507 119.341L65.7061 114.058ZM63.5843 118.118C63.7756 119.773 64.957 121.158 66.5809 121.593L68.1319 115.797C68.9038 116.003 69.4552 116.656 69.5445 117.429L63.5843 118.118ZM66.5802 121.593C72.669 123.223 76.9144 128.749 76.9144 135H82.9144C82.9144 126.016 76.8278 118.126 68.1326 115.797L66.5802 121.593ZM79.9144 138H82.0744V132H79.9144V138ZM85.0744 135.002C85.0814 125.914 79.4686 117.837 71.1674 114.528L68.9455 120.101C75.0023 122.516 79.0795 128.408 79.0744 134.997L85.0744 135.002Z" fill="#515151" mask="url(#path-2-inside-1_144_40)"/>
</svg>
