<svg width="180" height="180" viewBox="0 0 180 180" fill="none" xmlns="http://www.w3.org/2000/svg">
<circle cx="90" cy="90" r="90" fill="#D9D9D9"/>
<path d="M79.8333 115.417C79.8333 117.427 79.2371 119.393 78.1199 121.065C77.0028 122.737 75.415 124.04 73.5573 124.809C71.6996 125.579 69.6554 125.78 67.6833 125.388C65.7111 124.996 63.8996 124.027 62.4778 122.606C61.0559 121.184 60.0876 119.372 59.6954 117.4C59.3031 115.428 59.5044 113.384 60.2739 111.526C61.0434 109.668 62.3465 108.081 64.0184 106.963C65.6903 105.846 67.6559 105.25 69.6667 105.25C72.363 105.25 74.949 106.321 76.8556 108.228C78.7622 110.134 79.8333 112.72 79.8333 115.417ZM120.5 105.25C118.489 105.25 116.524 105.846 114.852 106.963C113.18 108.081 111.877 109.668 111.107 111.526C110.338 113.384 110.136 115.428 110.529 117.4C110.921 119.372 111.889 121.184 113.311 122.606C114.733 124.027 116.544 124.996 118.517 125.388C120.489 125.78 122.533 125.579 124.391 124.809C126.248 124.04 127.836 122.737 128.953 121.065C130.07 119.393 130.667 117.427 130.667 115.417C130.667 112.72 129.596 110.134 127.689 108.228C125.782 106.321 123.196 105.25 120.5 105.25Z" stroke="#515151" stroke-width="3" stroke-linecap="round" stroke-linejoin="round"/>
<path d="M105.25 115.417V59.5001C105.25 58.1519 104.714 56.8589 103.761 55.9056C102.808 54.9523 101.515 54.4167 100.167 54.4167H49.3333C47.9851 54.4167 46.6922 54.9523 45.7389 55.9056C44.7856 56.8589 44.25 58.1519 44.25 59.5001V110.333C44.25 111.682 44.7856 112.975 45.7389 113.928C46.6922 114.881 47.9851 115.417 49.3333 115.417H59.5C59.5 112.72 60.5711 110.134 62.4777 108.228C64.3844 106.321 66.9703 105.25 69.6667 105.25C72.363 105.25 74.949 106.321 76.8556 108.228C78.7622 110.134 79.8333 112.72 79.8333 115.417H105.25ZM105.25 115.417V69.6667H122.838C123.684 69.6627 124.518 69.8697 125.263 70.2692C126.009 70.6686 126.643 71.2478 127.108 71.9542L134.886 83.6459C135.442 84.473 135.742 85.4452 135.75 86.4418V115.417H130.667C130.667 112.72 129.596 110.134 127.689 108.228C125.782 106.321 123.196 105.25 120.5 105.25C117.804 105.25 115.218 106.321 113.311 108.228C111.404 110.134 110.333 112.72 110.333 115.417H105.25Z" stroke="#515151" stroke-width="3" stroke-linecap="round" stroke-linejoin="round"/>
</svg>
